<svg xmlns="http://www.w3.org/2000/svg" width="100%" height="100%" preserveAspectRatio="none" style="position: absolute; top: 0; left: 0;">
  <defs>
    <linearGradient id="skyGradient" x1="0" y1="0" x2="0" y2="1">
      <stop offset="0%" stop-color="#050517" /> <!-- Dark top -->
      <stop offset="85%" stop-color="#0b0b22" />
      <stop offset="100%" stop-color="#4a3082" /> <!-- Bluish-purple bottom -->
    </linearGradient>
  </defs>

  <rect width="100%" height="100%" fill="url(#skyGradient)" />
  <!-- Stars -->
  <circle cx="231" cy="794" r="2.54" fill="white" />
  <circle cx="78" cy="582" r="2.18" fill="white" />
  <circle cx="352" cy="318" r="1.47" fill="white" />
  <circle cx="145" cy="195" r="0.76" fill="white" />
  <circle cx="232" cy="749" r="0.86" fill="white" />
  <circle cx="152" cy="35" r="2.25" fill="white" />
  <circle cx="316" cy="230" r="1.13" fill="white" />
  <circle cx="222" cy="463" r="0.59" fill="white" />
  <circle cx="245" cy="509" r="0.73" fill="white" />
  <circle cx="58" cy="384" r="2.74" fill="white" />
  <circle cx="329" cy="122" r="2.63" fill="white" />
  <circle cx="277" cy="482" r="0.81" fill="white" />
  <circle cx="359" cy="358" r="2.41" fill="white" />
  <circle cx="205" cy="739" r="1.94" fill="white" />
  <circle cx="260" cy="720" r="1.07" fill="white" />
  <circle cx="395" cy="291" r="2.85" fill="white" />
  <circle cx="383" cy="587" r="1.82" fill="white" />
  <circle cx="23" cy="726" r="1.19" fill="white" />
  <circle cx="40" cy="299" r="2.64" fill="white" />
  <circle cx="167" cy="274" r="0.57" fill="white" />
  <circle cx="32" cy="674" r="2.73" fill="white" />
  <circle cx="354" cy="38" r="1.16" fill="white" />
  <circle cx="317" cy="739" r="2.71" fill="white" />
  <circle cx="82" cy="494" r="2.91" fill="white" />
  <circle cx="306" cy="355" r="2.26" fill="white" />
  <circle cx="337" cy="576" r="2.71" fill="white" />
  <circle cx="146" cy="90" r="1.78" fill="white" />
  <circle cx="258" cy="303" r="0.63" fill="white" />
  <circle cx="347" cy="395" r="2.75" fill="white" />
  <circle cx="170" cy="455" r="1.26" fill="white" />
  <circle cx="388" cy="62" r="2.91" fill="white" />
  <circle cx="89" cy="164" r="0.66" fill="white" />
  <circle cx="28" cy="401" r="1.52" fill="white" />
  <circle cx="368" cy="173" r="1.88" fill="white" />
  <circle cx="139" cy="659" r="2.43" fill="white" />
  <circle cx="325" cy="534" r="1.49" fill="white" />
  <circle cx="95" cy="342" r="0.91" fill="white" />
  <circle cx="87" cy="88" r="1.87" fill="white" />
  <circle cx="132" cy="732" r="1.43" fill="white" />
  <circle cx="388" cy="398" r="2.44" fill="white" />
  <circle cx="60" cy="748" r="2.72" fill="white" />
  <circle cx="299" cy="775" r="2.02" fill="white" />
  <circle cx="82" cy="331" r="2.88" fill="white" />
  <circle cx="302" cy="760" r="2.73" fill="white" />
  <circle cx="390" cy="559" r="2.12" fill="white" />
  <circle cx="138" cy="439" r="1.54" fill="white" />
  <circle cx="381" cy="533" r="0.67" fill="white" />
  <circle cx="356" cy="245" r="2.97" fill="white" />
</svg>
